<svg width="1775" height="340" viewBox="0 0 1775 340" fill="none" xmlns="http://www.w3.org/2000/svg">
<path d="M257.731 125.39C271.111 188.085 279.769 340 126.289 340C-27.1896 340 -1.21741 148.701 6.65345 125.39C1.40629 192.64 17.988 327.139 126.289 327.14C261.666 327.14 257.731 173.617 257.731 125.39Z" fill="#F1B32E"/>
<path d="M159.346 0C183.221 0.803783 230.97 43.4043 230.97 146.288C230.97 290.166 169.578 320.709 128.65 320.709C87.7225 320.709 34.9882 284.538 34.9882 146.288C34.9882 34.5637 82.2126 2.67979 105.825 0C86.148 10.1819 46.7944 60.2845 46.7944 146.288C46.7944 262.033 88.5096 307.848 128.65 307.849C168.791 307.849 217.59 274.09 217.59 146.288C217.59 63.4988 178.761 6.16234 159.346 0Z" fill="#F1B32E"/>
<path d="M52.3039 32.9551C30.2658 78.5029 1.45909 194.355 62.5359 293.381C-1.21679 237.92 -2.00397 83.5937 52.3039 32.9551Z" fill="#F1B32E"/>
<path d="M109.942 8.03783C80.5577 53.5857 39.8924 179.244 109.942 293.381C57.2081 273.285 17.8545 92.4349 109.942 8.03783Z" fill="#F1B32E"/>
<path d="M153.837 8.03783C245.925 92.435 206.571 273.286 153.837 293.381C223.887 179.244 183.221 53.5855 153.837 8.03783Z" fill="#F1B32E"/>
<path d="M212.868 32.9551C267.176 83.5934 266.389 237.92 202.636 293.381C263.713 194.355 234.906 78.5028 212.868 32.9551Z" fill="#F1B32E"/>
<path d="M390.652 120.526H380.619V48.839H355.111V39.8933H416.281V48.839H390.652V120.526Z" fill="black"/>
<path d="M480.269 120.526H471.202V82.0835C471.202 71.8079 465.883 68.7857 458.025 68.7857C451.014 68.7857 444.244 73.1377 440.738 77.8524V120.526H431.672V39.8933H440.738V70.599C444.848 65.7635 452.827 60.6862 461.652 60.6862C473.862 60.6862 480.269 66.6097 480.269 79.3031V120.526Z" fill="black"/>
<path d="M527.144 121.977C509.857 121.977 497.406 109.525 497.406 91.2711C497.406 74.3466 509.495 60.6862 526.177 60.6862C543.827 60.6862 554.224 74.4675 554.224 91.9964V94.2933H506.956C507.681 105.294 515.418 114.482 527.991 114.482C534.64 114.482 541.409 111.822 546.003 107.108L550.355 113.031C544.552 118.834 536.695 121.977 527.144 121.977ZM545.278 87.6444C545.157 78.9404 539.354 68.1813 526.056 68.1813C513.605 68.1813 507.44 78.6986 506.956 87.6444H545.278Z" fill="black"/>
<path d="M631.386 121.977C617.363 121.977 607.087 116.658 600.438 109.163L606.362 101.547C611.681 107.47 620.385 113.031 631.748 113.031C646.134 113.031 650.728 105.294 650.728 99.1288C650.728 78.3359 602.977 89.8204 602.977 61.0488C602.977 47.751 614.824 38.6844 630.66 38.6844C642.991 38.6844 652.541 42.7946 659.311 49.927L653.267 57.3013C647.222 50.6524 638.76 47.6301 629.935 47.6301C620.264 47.6301 613.373 52.8284 613.373 60.4444C613.373 78.5777 661.124 68.1813 661.124 98.2826C661.124 110.009 653.146 121.977 631.386 121.977Z" fill="black"/>
<path d="M703.67 121.977C685.899 121.977 674.777 108.196 674.777 91.2711C674.777 74.3466 685.899 60.6862 703.67 60.6862C721.44 60.6862 732.562 74.3466 732.562 91.2711C732.562 108.196 721.44 121.977 703.67 121.977ZM703.67 113.877C716.121 113.877 723.012 103.239 723.012 91.2711C723.012 79.4239 716.121 68.7857 703.67 68.7857C691.218 68.7857 684.207 79.4239 684.207 91.2711C684.207 103.239 691.218 113.877 703.67 113.877Z" fill="black"/>
<path d="M775.51 121.977C758.102 121.977 746.376 108.679 746.376 91.2711C746.376 73.9839 758.102 60.6862 775.51 60.6862C786.148 60.6862 792.434 65.0382 796.907 70.8408L790.863 76.4017C786.994 71.0826 782.038 68.7857 775.993 68.7857C763.542 68.7857 755.805 78.3359 755.805 91.2711C755.805 104.206 763.542 113.877 775.993 113.877C782.038 113.877 786.994 111.46 790.863 106.261L796.907 111.822C792.434 117.625 786.148 121.977 775.51 121.977Z" fill="black"/>
<path d="M816.505 53.7955C813.241 53.7955 810.461 51.1359 810.461 47.751C810.461 44.3661 813.241 41.5857 816.505 41.5857C819.89 41.5857 822.671 44.3661 822.671 47.751C822.671 51.1359 819.89 53.7955 816.505 53.7955ZM821.099 120.526H812.032V62.1368H821.099V120.526Z" fill="black"/>
<path d="M867.957 121.977C850.67 121.977 838.218 109.525 838.218 91.2711C838.218 74.3466 850.307 60.6862 866.99 60.6862C884.639 60.6862 895.036 74.4675 895.036 91.9964V94.2933H847.768C848.494 105.294 856.231 114.482 868.803 114.482C875.452 114.482 882.222 111.822 886.815 107.108L891.167 113.031C885.365 118.834 877.507 121.977 867.957 121.977ZM886.09 87.6444C885.969 78.9404 880.167 68.1813 866.869 68.1813C854.417 68.1813 848.252 78.6986 847.768 87.6444H886.09Z" fill="black"/>
<path d="M926.887 121.977C918.304 121.977 913.952 117.02 913.952 108.316V70.1155H904.281V62.1368H913.952V46.1795H923.019V62.1368H934.866V70.1155H923.019V106.382C923.019 110.734 924.953 113.877 928.942 113.877C931.481 113.877 933.899 112.789 935.108 111.46L937.767 118.229C935.47 120.405 932.206 121.977 926.887 121.977Z" fill="black"/>
<path d="M946.827 143.374L948.278 135.154C949.608 135.758 951.784 136.121 953.234 136.121C957.224 136.121 959.883 134.791 961.938 129.956L965.807 121.131L941.387 62.1368H951.179L970.642 110.009L989.985 62.1368H999.898L970.642 132.373C967.137 140.836 961.213 144.1 953.476 144.22C951.542 144.22 948.52 143.858 946.827 143.374Z" fill="black"/>
<path d="M1056.96 120.526H1047.9V70.1155H1038.22V62.1368H1047.9V57.6639C1047.9 45.6959 1054.42 38.6844 1064.82 38.6844C1069.41 38.6844 1073.52 39.7724 1077.15 43.1573L1073.4 49.0808C1071.47 47.3884 1069.17 46.1795 1066.15 46.1795C1060.23 46.1795 1056.96 50.2897 1056.96 57.6639V62.1368H1068.81V70.1155H1056.96V120.526Z" fill="black"/>
<path d="M1107.52 121.977C1089.75 121.977 1078.63 108.196 1078.63 91.2711C1078.63 74.3466 1089.75 60.6862 1107.52 60.6862C1125.29 60.6862 1136.41 74.3466 1136.41 91.2711C1136.41 108.196 1125.29 121.977 1107.52 121.977ZM1107.52 113.877C1119.97 113.877 1126.86 103.239 1126.86 91.2711C1126.86 79.4239 1119.97 68.7857 1107.52 68.7857C1095.07 68.7857 1088.06 79.4239 1088.06 91.2711C1088.06 103.239 1095.07 113.877 1107.52 113.877Z" fill="black"/>
<path d="M1162.68 120.526H1153.61V62.1368H1162.68V71.5662C1167.39 65.4008 1174.16 60.9279 1182.14 60.9279V70.2364C1181.05 69.9946 1179.96 69.8737 1178.51 69.8737C1172.95 69.8737 1165.34 74.4675 1162.68 79.1822V120.526Z" fill="black"/>
<path d="M1268.08 121.977C1244.87 121.977 1226.61 105.052 1226.61 80.2702C1226.61 55.4879 1244.87 38.5635 1268.08 38.5635C1282.34 38.5635 1292.26 45.4541 1298.66 54.5208L1290.2 59.2355C1285.61 52.4657 1277.27 47.5093 1268.08 47.5093C1250.43 47.5093 1237.01 61.0488 1237.01 80.2702C1237.01 99.3706 1250.43 113.031 1268.08 113.031C1277.27 113.031 1285.61 108.196 1290.2 101.305L1298.78 106.02C1292.01 115.207 1282.34 121.977 1268.08 121.977Z" fill="black"/>
<path d="M1339.13 121.977C1321.36 121.977 1310.24 108.196 1310.24 91.2711C1310.24 74.3466 1321.36 60.6862 1339.13 60.6862C1356.91 60.6862 1368.03 74.3466 1368.03 91.2711C1368.03 108.196 1356.91 121.977 1339.13 121.977ZM1339.13 113.877C1351.59 113.877 1358.48 103.239 1358.48 91.2711C1358.48 79.4239 1351.59 68.7857 1339.13 68.7857C1326.68 68.7857 1319.67 79.4239 1319.67 91.2711C1319.67 103.239 1326.68 113.877 1339.13 113.877Z" fill="black"/>
<path d="M1394.29 120.526H1385.23V39.8933H1394.29V120.526Z" fill="black"/>
<path d="M1423.86 120.526H1414.8V39.8933H1423.86V120.526Z" fill="black"/>
<path d="M1470.72 121.977C1453.43 121.977 1440.98 109.525 1440.98 91.2711C1440.98 74.3466 1453.07 60.6862 1469.75 60.6862C1487.4 60.6862 1497.8 74.4675 1497.8 91.9964V94.2933H1450.53C1451.26 105.294 1458.99 114.482 1471.57 114.482C1478.22 114.482 1484.98 111.822 1489.58 107.108L1493.93 113.031C1488.13 118.834 1480.27 121.977 1470.72 121.977ZM1488.85 87.6444C1488.73 78.9404 1482.93 68.1813 1469.63 68.1813C1457.18 68.1813 1451.02 78.6986 1450.53 87.6444H1488.85Z" fill="black"/>
<path d="M1538.35 144.22C1528.44 144.22 1521.67 142.286 1514.78 135.516L1519.38 128.747C1524.21 134.549 1530.01 136.725 1538.35 136.725C1548.03 136.725 1557.09 132.011 1557.09 119.196V110.855C1552.86 116.779 1545.73 121.252 1537.51 121.252C1522.28 121.252 1511.52 109.888 1511.52 91.0293C1511.52 72.2915 1522.16 60.6862 1537.51 60.6862C1545.37 60.6862 1552.38 64.5546 1557.09 70.9617V62.1368H1566.16V118.834C1566.16 138.176 1552.62 144.22 1538.35 144.22ZM1539.68 113.273C1546.94 113.273 1553.95 108.8 1557.09 103.723V78.2151C1553.95 73.1377 1546.94 68.7857 1539.68 68.7857C1527.96 68.7857 1520.95 78.0942 1520.95 91.0293C1520.95 103.844 1527.96 113.273 1539.68 113.273Z" fill="black"/>
<path d="M1591.21 53.7955C1587.95 53.7955 1585.17 51.1359 1585.17 47.751C1585.17 44.3661 1587.95 41.5857 1591.21 41.5857C1594.59 41.5857 1597.37 44.3661 1597.37 47.751C1597.37 51.1359 1594.59 53.7955 1591.21 53.7955ZM1595.8 120.526H1586.74V62.1368H1595.8V120.526Z" fill="black"/>
<path d="M1661.88 120.526H1652.82V113.877C1647.98 119.196 1641.33 121.977 1633.47 121.977C1623.56 121.977 1613.04 115.328 1613.04 102.635C1613.04 89.5786 1623.56 83.4133 1633.47 83.4133C1641.45 83.4133 1648.1 85.9519 1652.82 91.392V80.8746C1652.82 73.0168 1646.53 68.5439 1638.07 68.5439C1631.06 68.5439 1625.37 71.0826 1620.18 76.6435L1615.94 70.3573C1622.23 63.8293 1629.73 60.6862 1639.28 60.6862C1651.61 60.6862 1661.88 66.247 1661.88 80.3911V120.526ZM1636.74 115.449C1643.14 115.449 1649.31 113.031 1652.82 108.196V97.1946C1649.31 92.3591 1643.14 89.9413 1636.74 89.9413C1628.28 89.9413 1622.35 95.2604 1622.35 102.756C1622.35 110.13 1628.28 115.449 1636.74 115.449Z" fill="black"/>
<path d="M1697.22 121.977C1688.64 121.977 1684.29 117.02 1684.29 108.316V70.1155H1674.62V62.1368H1684.29V46.1795H1693.35V62.1368H1705.2V70.1155H1693.35V106.382C1693.35 110.734 1695.29 113.877 1699.28 113.877C1701.82 113.877 1704.23 112.789 1705.44 111.46L1708.1 118.229C1705.81 120.405 1702.54 121.977 1697.22 121.977Z" fill="black"/>
<path d="M1746.78 121.977C1729.49 121.977 1717.04 109.525 1717.04 91.2711C1717.04 74.3466 1729.13 60.6862 1745.81 60.6862C1763.46 60.6862 1773.86 74.4675 1773.86 91.9964V94.2933H1726.59C1727.32 105.294 1735.06 114.482 1747.63 114.482C1754.28 114.482 1761.05 111.822 1765.64 107.108L1769.99 113.031C1764.19 118.834 1756.33 121.977 1746.78 121.977ZM1764.91 87.6444C1764.79 78.9404 1758.99 68.1813 1745.69 68.1813C1733.24 68.1813 1727.08 78.6986 1726.59 87.6444H1764.91Z" fill="black"/>
<path d="M408.181 279.193H360.672V198.56H370.706V270.247H408.181V279.193Z" fill="black"/>
<path d="M445.691 280.644C428.404 280.644 415.952 268.192 415.952 249.938C415.952 233.013 428.041 219.353 444.724 219.353C462.374 219.353 472.77 233.134 472.77 250.663V252.96H425.502C426.228 263.961 433.965 273.148 446.537 273.148C453.186 273.148 459.956 270.489 464.55 265.774L468.902 271.698C463.099 277.5 455.241 280.644 445.691 280.644ZM463.824 246.311C463.703 237.607 457.901 226.848 444.603 226.848C432.151 226.848 425.986 237.365 425.502 246.311H463.824Z" fill="black"/>
<path d="M533.03 279.193H523.964V272.544C519.128 277.863 512.479 280.644 504.621 280.644C494.708 280.644 484.191 273.995 484.191 261.301C484.191 248.245 494.708 242.08 504.621 242.08C512.6 242.08 519.249 244.619 523.964 250.059V239.541C523.964 231.684 517.677 227.211 509.215 227.211C502.204 227.211 496.522 229.749 491.324 235.31L487.092 229.024C493.379 222.496 500.874 219.353 510.424 219.353C522.755 219.353 533.03 224.914 533.03 239.058V279.193ZM507.885 274.116C514.292 274.116 520.458 271.698 523.964 266.862V255.861C520.458 251.026 514.292 248.608 507.885 248.608C499.423 248.608 493.5 253.927 493.5 261.422C493.5 268.796 499.423 274.116 507.885 274.116Z" fill="black"/>
<path d="M602.583 279.193H593.516V270.489C589.164 276.412 582.032 280.644 573.811 280.644C558.579 280.644 547.82 269.038 547.82 250.059C547.82 231.442 558.458 219.353 573.811 219.353C581.669 219.353 588.802 223.221 593.516 229.628V198.56H602.583V279.193ZM575.987 272.544C583.241 272.544 590.252 268.434 593.516 263.356V236.882C590.252 231.804 583.241 227.452 575.987 227.452C564.261 227.452 557.25 237.124 557.25 250.059C557.25 262.994 564.261 272.544 575.987 272.544Z" fill="black"/>
<path d="M647.094 280.644C629.807 280.644 617.355 268.192 617.355 249.938C617.355 233.013 629.444 219.353 646.127 219.353C663.776 219.353 674.173 233.134 674.173 250.663V252.96H626.905C627.631 263.961 635.367 273.148 647.94 273.148C654.589 273.148 661.359 270.489 665.952 265.774L670.304 271.698C664.502 277.5 656.644 280.644 647.094 280.644ZM665.227 246.311C665.106 237.607 659.303 226.848 646.006 226.848C633.554 226.848 627.389 237.365 626.905 246.311H665.227Z" fill="black"/>
<path d="M697.925 279.193H688.858V220.804H697.925V230.233C702.639 224.068 709.409 219.595 717.388 219.595V228.903C716.3 228.661 715.212 228.54 713.761 228.54C708.2 228.54 700.584 233.134 697.925 237.849V279.193Z" fill="black"/>
<path d="M747.257 280.644C737.707 280.644 729.607 277.742 723.683 271.456L728.398 264.928C732.267 269.401 739.641 273.269 747.619 273.269C756.565 273.269 761.401 269.038 761.401 263.236C761.401 249.092 725.255 257.796 725.255 236.156C725.255 227.09 733.113 219.353 747.015 219.353C756.928 219.353 763.939 223.1 768.654 227.815L764.423 234.101C760.917 229.87 754.51 226.727 747.015 226.727C739.036 226.727 734.08 230.716 734.08 235.915C734.08 248.729 770.226 240.267 770.226 262.994C770.226 272.786 762.368 280.644 747.257 280.644Z" fill="black"/>
<path d="M833.553 279.193H824.486V240.75C824.486 230.475 819.167 227.452 811.309 227.452C804.297 227.452 797.528 231.804 794.022 236.519V279.193H784.955V198.56H794.022V229.266C798.132 224.43 806.111 219.353 814.936 219.353C827.145 219.353 833.553 225.276 833.553 237.97V279.193Z" fill="black"/>
<path d="M856.129 212.462C852.865 212.462 850.085 209.803 850.085 206.418C850.085 203.033 852.865 200.252 856.129 200.252C859.514 200.252 862.295 203.033 862.295 206.418C862.295 209.803 859.514 212.462 856.129 212.462ZM860.723 279.193H851.657V220.804H860.723V279.193Z" fill="black"/>
<path d="M907.581 280.644C899.602 280.644 892.591 276.896 887.876 270.368V301.436H878.809V220.804H887.876V229.508C892.107 223.584 899.36 219.353 907.581 219.353C922.934 219.353 933.572 230.958 933.572 249.938C933.572 268.796 922.934 280.644 907.581 280.644ZM905.284 272.544C917.01 272.544 924.022 262.873 924.022 249.938C924.022 237.003 917.01 227.452 905.284 227.452C898.152 227.452 891.019 231.684 887.876 236.761V263.115C891.019 268.192 898.152 272.544 905.284 272.544Z" fill="black"/>
<path d="M1044.19 279.193H1031.62C1029.2 277.138 1026.06 274.116 1022.8 270.731C1016.87 276.654 1009.38 280.644 999.587 280.644C985.685 280.644 974.442 273.148 974.442 258.158C974.442 245.586 982.904 239.179 992.213 234.222C988.586 228.057 986.047 221.771 986.047 216.089C986.047 205.33 994.993 197.351 1006.36 197.351C1016.87 197.351 1024.61 203.033 1024.61 213.188C1024.61 225.276 1014.34 230.596 1004.06 235.915C1007.32 240.388 1010.71 244.377 1013.37 247.399C1016.63 251.268 1019.78 254.773 1022.92 258.158C1027.39 251.509 1030.17 244.256 1031.62 239.783L1039.48 243.168C1036.7 249.575 1033.31 257.191 1028.48 263.961C1033.19 268.917 1038.27 273.753 1044.19 279.193ZM1000.43 273.148C1007.08 273.148 1012.76 269.764 1017.36 265.17C1012.76 260.334 1008.53 255.74 1006.24 252.96C1002.85 249.092 999.345 244.74 996.081 240.146C989.432 244.256 984.234 249.212 984.234 257.554C984.234 267.588 991.971 273.148 1000.43 273.148ZM995.477 216.21C995.477 220.441 997.532 225.397 1000.31 230.112C1008.9 225.881 1016.27 221.529 1016.27 213.55C1016.27 207.627 1012.16 204.484 1006.72 204.484C1000.55 204.484 995.477 209.319 995.477 216.21Z" fill="black"/>
<path d="M1157.16 279.193H1145.67L1138.54 261.301H1098.41L1091.27 279.193H1079.79L1112.19 198.56H1124.64L1157.16 279.193ZM1135.52 252.356L1118.47 208.956L1101.31 252.356H1135.52Z" fill="black"/>
<path d="M1193.09 280.644C1175.68 280.644 1163.95 267.346 1163.95 249.938C1163.95 232.651 1175.68 219.353 1193.09 219.353C1203.72 219.353 1210.01 223.705 1214.48 229.508L1208.44 235.068C1204.57 229.749 1199.61 227.452 1193.57 227.452C1181.12 227.452 1173.38 237.003 1173.38 249.938C1173.38 262.873 1181.12 272.544 1193.57 272.544C1199.61 272.544 1204.57 270.126 1208.44 264.928L1214.48 270.489C1210.01 276.292 1203.72 280.644 1193.09 280.644Z" fill="black"/>
<path d="M1275.79 279.193H1266.72V240.75C1266.72 230.475 1261.4 227.452 1253.55 227.452C1246.53 227.452 1239.76 231.804 1236.26 236.519V279.193H1227.19V198.56H1236.26V229.266C1240.37 224.43 1248.35 219.353 1257.17 219.353C1269.38 219.353 1275.79 225.276 1275.79 237.97V279.193Z" fill="black"/>
<path d="M1298.37 212.462C1295.1 212.462 1292.32 209.803 1292.32 206.418C1292.32 203.033 1295.1 200.252 1298.37 200.252C1301.75 200.252 1304.53 203.033 1304.53 206.418C1304.53 209.803 1301.75 212.462 1298.37 212.462ZM1302.96 279.193H1293.89V220.804H1302.96V279.193Z" fill="black"/>
<path d="M1347.4 280.644C1330.11 280.644 1317.66 268.192 1317.66 249.938C1317.66 233.013 1329.75 219.353 1346.43 219.353C1364.08 219.353 1374.48 233.134 1374.48 250.663V252.96H1327.21C1327.94 263.961 1335.67 273.148 1348.25 273.148C1354.89 273.148 1361.66 270.489 1366.26 265.774L1370.61 271.698C1364.81 277.5 1356.95 280.644 1347.4 280.644ZM1365.53 246.311C1365.41 237.607 1359.61 226.848 1346.31 226.848C1333.86 226.848 1327.69 237.365 1327.21 246.311H1365.53Z" fill="black"/>
<path d="M1414.67 279.193H1404.76L1380.46 220.804H1390.25L1409.71 268.676L1429.06 220.804H1438.97L1414.67 279.193Z" fill="black"/>
<path d="M1474.78 280.644C1457.49 280.644 1445.04 268.192 1445.04 249.938C1445.04 233.013 1457.13 219.353 1473.81 219.353C1491.46 219.353 1501.86 233.134 1501.86 250.663V252.96H1454.59C1455.32 263.961 1463.05 273.148 1475.63 273.148C1482.28 273.148 1489.05 270.489 1493.64 265.774L1497.99 271.698C1492.19 277.5 1484.33 280.644 1474.78 280.644ZM1492.91 246.311C1492.79 237.607 1486.99 226.848 1473.69 226.848C1461.24 226.848 1455.08 237.365 1454.59 246.311H1492.91Z" fill="black"/>
<path d="M1596.09 279.193H1587.02V239.541C1587.02 232.167 1583.76 227.452 1576.26 227.452C1570.22 227.452 1563.81 231.804 1560.79 236.398V279.193H1551.72V239.541C1551.72 232.167 1548.58 227.452 1540.97 227.452C1535.04 227.452 1528.76 231.804 1525.61 236.519V279.193H1516.55V220.804H1525.61V229.266C1528.03 225.518 1535.89 219.353 1544.47 219.353C1553.42 219.353 1558.49 224.188 1560.19 230.233C1563.45 224.914 1571.31 219.353 1579.77 219.353C1590.41 219.353 1596.09 225.276 1596.09 237.003V279.193Z" fill="black"/>
<path d="M1640.53 280.644C1623.24 280.644 1610.79 268.192 1610.79 249.938C1610.79 233.013 1622.88 219.353 1639.56 219.353C1657.21 219.353 1667.61 233.134 1667.61 250.663V252.96H1620.34C1621.07 263.961 1628.8 273.148 1641.38 273.148C1648.03 273.148 1654.8 270.489 1659.39 265.774L1663.74 271.698C1657.94 277.5 1650.08 280.644 1640.53 280.644ZM1658.66 246.311C1658.54 237.607 1652.74 226.848 1639.44 226.848C1626.99 226.848 1620.83 237.365 1620.34 246.311H1658.66Z" fill="black"/>
<path d="M1730.77 279.193H1721.71V240.992C1721.71 230.716 1716.51 227.452 1708.65 227.452C1701.52 227.452 1694.75 231.804 1691.36 236.519V279.193H1682.3V220.804H1691.36V229.266C1695.47 224.43 1703.45 219.353 1712.16 219.353C1724.36 219.353 1730.77 225.518 1730.77 238.212V279.193Z" fill="black"/>
<path d="M1763.63 280.644C1755.04 280.644 1750.69 275.687 1750.69 266.983V228.782H1741.02V220.804H1750.69V204.846H1759.76V220.804H1771.61V228.782H1759.76V265.049C1759.76 269.401 1761.69 272.544 1765.68 272.544C1768.22 272.544 1770.64 271.456 1771.85 270.126L1774.51 276.896C1772.21 279.072 1768.95 280.644 1763.63 280.644Z" fill="black"/>
</svg>
