<svg width="681" height="704" viewBox="0 0 681 704" fill="none" xmlns="http://www.w3.org/2000/svg">
<mask id="mask0_87_111" style="mask-type:luminance" maskUnits="userSpaceOnUse" x="0" y="0" width="681" height="704">
<path d="M680.193 0H0V703.125H680.193V0Z" fill="white"/>
</mask>
<g mask="url(#mask0_87_111)">
<path d="M272.074 0.00193475C266.31 4.93893 260.487 9.19884 253.794 13.2441C228.79 29.2776 211.361 47.2522 194.985 69.377C194.127 70.499 193.267 71.6211 192.383 72.7772C174.457 96.3195 163.146 122.012 151.906 148.127C151.213 149.681 150.52 151.236 149.806 152.836C128.273 201.666 122.559 257.811 120.164 309.377C120.088 310.857 120.013 312.338 119.936 313.863C119.53 323.01 119.688 332.108 120.164 341.253C120.245 342.954 120.326 344.657 120.41 346.412C124.901 430.073 145.296 512.874 207.447 580.85C210.857 585.003 210.857 585.003 210.857 588.752C212.153 589.195 213.452 589.636 214.788 590.092C221.057 593.033 224.755 596.617 229.562 601.057C258.505 625.308 299.182 638.181 340.093 638.675C380.482 638.188 420.622 625.68 449.562 602.038C452.999 599.099 456.344 596.101 459.676 593.081C461.365 591.652 463.055 590.223 464.795 588.752C466.29 588.752 467.788 588.752 469.329 588.752C469.861 587.776 470.393 586.799 470.941 585.794C474.037 580.984 477.646 576.591 481.402 572.122C499.3 550.722 512.468 528.202 524.312 504.143C525.031 502.69 525.751 501.24 526.491 499.744C537.755 476.195 544.07 452.04 548.968 427.15C549.261 425.689 549.553 424.228 549.854 422.722C555.227 395.64 558.714 368.696 560.021 341.253C560.097 339.805 560.173 338.358 560.25 336.868C560.666 327.674 560.488 318.563 560.021 309.377C559.9 306.758 559.9 306.758 559.776 304.085C557.067 252.193 550.099 197.117 528.28 148.127C527.474 146.245 526.667 144.363 525.836 142.423C514.249 115.493 501.456 89.8218 482.934 65.627C482.034 64.4496 481.136 63.2722 480.209 62.0592C462.318 39.1014 439.934 18.8928 412.035 4.0742C410.74 3.34911 409.446 2.624 408.112 1.87693C408.112 1.25819 408.112 0.639436 408.112 0.00193475C433.23 -3.14388 458.461 7.33624 478.399 19.3378C496.023 32.0764 508.804 48.1727 520.202 64.9238C521.462 66.7734 522.721 68.6227 524.02 70.5282C537.283 90.5878 546.599 111.535 555.487 133.127C556.8 136.199 558.117 139.271 559.437 142.341C560.629 145.167 561.816 147.993 562.998 150.822C563.493 151.992 563.988 153.161 564.499 154.366C574.312 178.737 579.617 203.947 583.563 229.354C584.257 233.812 584.981 238.263 585.71 242.716C590.251 270.846 592.243 298.707 592.188 327.072C592.187 328.555 592.185 330.037 592.183 331.565C592.009 388.027 585.994 447.259 562.29 500.628C561.43 502.58 560.571 504.532 559.685 506.542C546.751 535.421 531.854 561.806 510.141 586.878C508.586 588.688 507.031 590.497 505.429 592.363C501.174 596.998 496.735 601.319 492.002 605.628C490.973 606.569 489.943 607.509 488.883 608.48C451.838 641.886 404.456 663.457 349.163 666.147C295.52 667.755 246.711 651.462 206.977 621.99C185.538 605.44 169.293 586.942 154.174 566.253C152.265 563.721 152.265 563.721 150.317 561.14C139.988 547.096 132.418 532.788 125.549 517.385C125.012 516.189 124.476 514.993 123.923 513.762C97.5806 454.877 87.9239 392.788 87.8547 330.12C87.8524 328.664 87.8501 327.211 87.8477 325.712C87.8792 295.626 90.5974 266.11 95.2235 236.252C95.5391 234.173 95.8548 232.093 96.1799 229.95C106.681 163.161 134.271 67.2629 199.52 20.627C222.053 7.68646 244.292 -1.75782 272.074 0.00193475Z" fill="#55A4DD"/>
<path d="M15.8771 258.747C17.3735 258.747 18.87 258.747 20.4118 258.747C20.2547 260.835 20.0976 262.924 19.9357 265.077C18.2447 288.713 17.5954 312.296 17.5776 335.972C17.5761 337.825 17.5745 339.678 17.573 341.586C17.6093 369.384 18.9431 396.342 24.9464 423.746C25.7789 427.877 26.6113 432.008 27.444 436.139C32.4068 459.823 38.8242 482.146 49.8867 504.371C50.6594 505.965 51.4321 507.557 52.2283 509.199C61.7029 528.657 71.3037 547.255 86.1636 564.371C87.8356 566.419 89.5073 568.465 91.2297 570.575C124.535 610.965 166.552 639.294 219.936 659.997C222.238 660.912 224.542 661.828 226.915 662.772C291.196 685.87 383.997 684.084 449.073 664.242C480.254 654.041 507.595 640.902 532.824 622.497C534.759 621.123 536.693 619.751 538.687 618.337C560.878 602.3 578.309 584.942 594.04 564.371C595.238 562.902 596.436 561.434 597.669 559.921C608.026 546.994 615.711 533.819 622.808 519.488C623.849 517.445 624.892 515.401 625.964 513.296C636.927 491.532 645.09 470.232 650.17 447.019C650.998 443.239 651.864 439.466 652.734 435.692C659.814 404.455 662.776 373.89 662.526 342.108C662.486 336.688 662.48 331.267 662.48 325.847C662.428 303.428 661.499 281.121 659.793 258.747C661.29 258.747 662.785 258.747 664.328 258.747C666.148 265.616 667.934 272.493 669.713 279.371C670.215 281.266 670.719 283.161 671.237 285.113C678.05 311.629 680.917 337.527 680.88 364.545C680.889 367.401 680.9 370.258 680.91 373.114C680.926 379.053 680.926 384.992 680.914 390.93C680.903 396.939 680.919 402.946 680.961 408.955C681.259 452.793 680.2 493.229 659.793 534.371C659.088 535.801 658.382 537.232 657.654 538.705C648.796 556.409 639.221 573.052 625.783 588.746C624.31 590.496 622.838 592.247 621.319 594.048C602.257 616.239 579.773 639.275 551.422 653.66C546.367 656.186 546.367 656.186 541.715 659.242C487.646 693.558 414.898 704.505 348.624 704.202C340.71 704.176 332.801 704.24 324.887 704.311C273.534 704.458 228.074 696.289 181.39 678.747C178.896 677.82 178.896 677.82 176.351 676.877C154.795 668.778 136.226 659.378 117.906 646.871C116.313 645.796 114.72 644.72 113.079 643.613C108.518 640.42 104.131 637.122 99.7675 633.747C97.7831 632.226 95.7985 630.705 93.7538 629.139C78.9567 617.406 67.5566 605.017 56.6886 590.621C54.3818 587.883 52.0678 585.148 49.7451 582.419C14.7535 538.817 -0.690769 488.584 -0.755725 436.783C-0.770379 433.96 -0.78564 431.137 -0.801463 428.314C-0.828379 422.427 -0.83704 416.54 -0.834329 410.653C-0.833963 404.735 -0.865108 398.817 -0.927324 392.898C-1.4036 346.852 2.83587 303.735 15.8771 258.747Z" fill="#55A4DD"/>
<path d="M278.871 16.8779C278.124 19.9717 277.376 23.0655 276.604 26.2529C275.109 26.2529 273.611 26.2529 272.07 26.2529C271.512 27.5678 270.953 28.8826 270.377 30.2373C267.133 36.3902 262.956 41.3648 258.324 46.8779C208.858 108.71 196.346 188.407 188.179 260.628C188.02 261.951 187.86 263.272 187.694 264.634C180.509 325.621 186.766 388.019 199.515 448.128C199.934 450.138 200.352 452.148 200.782 454.218C207.78 487.319 218.033 518.701 235.712 549.07C237.694 552.494 239.399 556.027 241.036 559.574C249.968 575.167 262.846 589.065 276.037 602.361C278.871 605.628 278.871 605.628 278.871 609.378C254.562 606.996 234.624 584.68 219.921 570.003C208.34 557.67 198.883 544.58 190.447 530.628C189.766 529.529 189.086 528.43 188.385 527.297C168.219 494.284 157.334 457.8 148.785 421.643C148.46 420.276 148.134 418.906 147.799 417.496C141.013 386.269 139.72 354.978 139.857 323.324C139.861 321.346 139.865 319.366 139.87 317.328C139.975 287.465 141.01 258.223 147.368 228.754C147.951 225.993 147.951 225.993 148.547 223.178C157.58 181.739 170.014 140.941 192.714 103.128C193.553 101.674 194.389 100.22 195.254 98.7224C212.22 69.33 233.861 42.7156 265.267 22.5029C266.855 21.4515 268.442 20.4001 270.076 19.3169C274.337 16.8779 274.337 16.8779 278.871 16.8779Z" fill="#55A4DD"/>
<path d="M401.311 16.8779C421.077 24.6722 435.07 36.8399 448.924 50.6279C450.365 52.0394 451.805 53.4511 453.29 54.9052C514.828 119.809 539.607 216.684 540.078 297.557C540.101 300.32 540.1 300.32 540.125 303.14C540.164 309.047 540.18 314.955 540.183 320.862C540.185 322.881 540.187 324.898 540.189 326.979C540.152 356.482 539.421 385.298 532.815 414.378C532.23 417.017 532.23 417.017 531.635 419.71C523.089 457.309 512.427 495.474 489.732 529.067C487.436 532.553 485.325 536.084 483.243 539.658C467.137 566.879 440.825 594.791 408.113 609.378C406.616 609.378 405.121 609.378 403.578 609.378C404.77 601.403 407.749 597.36 414.065 591.331C431.228 574.14 442.186 557.202 451.191 536.253C452.485 533.467 453.787 530.684 455.098 527.903C476.985 481.061 486.838 430.536 492.003 380.628C492.255 378.451 492.505 376.273 492.764 374.028C498.547 314.393 493.569 254.204 481.843 195.303C480.73 189.699 479.673 184.091 478.621 178.479C468.948 128.927 448.665 76.3645 412.788 35.3936C408.113 30.0029 408.113 30.0029 408.113 26.2529C405.867 25.6341 403.623 25.0155 401.311 24.3779C401.311 21.9029 401.311 19.4279 401.311 16.8779Z" fill="#55A4DD"/>
<path d="M544.149 65.6274C575.783 76.6018 591.718 114.908 603.676 138.958C619.667 172.496 629.8 208.281 637.108 243.753C637.477 245.454 637.845 247.156 638.223 248.908C649.648 303.752 649.37 365.291 637.108 420.002C636.731 421.702 636.354 423.402 635.965 425.154C627.276 462.773 614.527 501.031 591.859 534.608C589.351 538.341 586.941 542.113 584.535 545.891C574.363 561.632 563.039 575.333 548.683 588.752C546.226 591.213 543.77 593.674 541.315 596.135C535.995 601.218 530.45 605.525 523.743 609.378C522.246 609.378 520.75 609.378 519.209 609.378C520.419 601.915 522.765 597.978 528.685 592.312C537.996 582.812 544.584 572.682 551.234 561.799C552.932 559.087 552.932 559.087 554.661 556.321C565.746 538.467 576.145 520.856 582.552 501.447C583.108 499.787 583.667 498.126 584.241 496.416C588.692 482.919 592.8 469.353 596.722 455.745C597.261 453.92 597.8 452.095 598.355 450.214C608.719 413.166 611.071 376.411 610.912 338.505C610.891 333.325 610.907 328.147 610.958 322.967C611.481 270.216 603.359 219.839 587.228 168.753C586.573 166.667 585.92 164.58 585.245 162.431C576.855 136.2 566.547 111.605 552.097 87.2111C551.063 85.4663 550.03 83.7215 548.967 81.9239C548.037 80.4001 547.108 78.8763 546.15 77.3064C544.149 73.1274 544.149 73.1274 544.149 65.6274Z" fill="#55A4DD"/>
<path d="M136.032 65.6274C135.083 75.3255 130.672 82.9116 125.734 91.5745C98.9707 138.626 84.7801 188.878 74.815 240.002C74.3743 242.084 73.9338 244.167 73.4799 246.311C68.9294 270.96 69.4312 295.878 69.44 320.754C69.4404 326.024 69.4092 331.292 69.347 336.562C68.7457 388.339 76.4276 437.471 92.9535 487.503C93.5464 489.299 94.1393 491.094 94.7502 492.945C103.562 518.969 115.829 542.563 131.498 566.252C132.271 567.438 133.044 568.622 133.84 569.844C140.086 579.359 146.39 588.187 155.163 596.252C160.973 601.878 160.973 601.878 160.973 609.378C148.214 604.688 139.33 597.409 130.648 588.519C129.04 586.889 127.432 585.26 125.776 583.582C99.8113 555.952 77.9731 524.843 65.7458 491.252C64.4631 487.985 63.1755 484.718 61.8842 481.452C55.0183 463.812 48.8829 446.178 44.6314 427.971C44.2979 426.56 43.9647 425.148 43.6212 423.693C37.1235 393.749 35.3407 363.648 35.4205 333.283C35.4217 331.497 35.423 329.711 35.4242 327.872C35.5778 279.099 43.3799 232.752 58.9438 185.628C59.5006 183.851 60.0572 182.075 60.6309 180.246C68.1725 156.312 97.3483 65.6274 136.032 65.6274Z" fill="#55A4DD"/>
</g>
</svg>
