<svg xmlns="http://www.w3.org/2000/svg" width="1920" height="1080" viewBox="0 0 1920 1080">
  <rect width="1920" height="1080" fill="#0d2437"/><text x="120" y="104" fill="#eaab2d" font-family="Arial" font-size="34" font-weight="700">A / FUTURE GALLERY</text>
  <g font-family="Arial" font-weight="700" text-anchor="middle"><g transform="translate(120 170)"><rect width="500" height="330" rx="18" fill="#f6f6f9"/><circle cx="250" cy="170" r="74" fill="#3393d6"/><rect x="55" y="72" width="120" height="186" fill="none" stroke="#eaab2d" stroke-width="12"/><rect x="325" y="72" width="120" height="186" fill="none" stroke="#0d2437" stroke-width="8"/><text x="250" y="310" fill="#0d2437" font-size="26">QUESTION / COMPASS</text></g>
  <g transform="translate(710 170)"><rect width="500" height="330" rx="18" fill="#f6f6f9"/><rect x="45" y="70" width="105" height="170" fill="none" stroke="#5f6f96" stroke-width="5"/><rect x="195" y="45" width="110" height="220" fill="none" stroke="#eaab2d" stroke-width="12"/><rect x="350" y="82" width="105" height="160" fill="none" stroke="#5f6f96" stroke-width="5"/><text x="250" y="310" fill="#0d2437" font-size="26">CURATED WALL</text></g>
  <g transform="translate(1300 170)"><rect width="500" height="330" rx="18" fill="#f6f6f9"/><path d="M90 50 L180 250 H20 Z" fill="#eaab2d" opacity=".75"/><path d="M250 50 L340 250 H160 Z" fill="#3393d6" opacity=".65"/><path d="M410 50 L490 250 H330 Z" fill="#ffffff" opacity=".85"/><rect x="182" y="142" width="136" height="120" fill="#0d2437"/><text x="250" y="310" fill="#0d2437" font-size="26">THREE SPOTLIGHTS</text></g>
  <g transform="translate(120 590)"><rect width="500" height="330" rx="18" fill="#f6f6f9"/><circle cx="250" cy="165" r="72" fill="#eaab2d"/><circle cx="95" cy="90" r="38" fill="#3393d6"/><circle cx="405" cy="90" r="38" fill="#3393d6"/><circle cx="405" cy="240" r="38" fill="#3393d6"/><path d="M130 105L188 140M370 105L312 140M370 225L312 190" stroke="#0d2437" stroke-width="8"/><text x="250" y="310" fill="#0d2437" font-size="26">LEADERSHIP EXHIBIT</text></g>
  <g transform="translate(710 590)"><rect width="500" height="330" rx="18" fill="#f6f6f9"/><polygon points="250,55 350,235 150,235" fill="#3393d6"/><path d="M45 155H165M335 155H455" stroke="#eaab2d" stroke-width="20"/><text x="250" y="310" fill="#0d2437" font-size="26">TRANSLATION PRISM</text></g>
  <g transform="translate(1300 590)"><rect width="500" height="330" rx="18" fill="#f6f6f9"/><rect x="55" y="75" width="390" height="150" fill="#ffffff" stroke="#0d2437" stroke-width="7"/><g fill="#eaab2d"><rect x="70" y="95" width="76" height="110"/><rect x="164" y="95" width="76" height="110"/><rect x="258" y="95" width="76" height="110"/><rect x="352" y="95" width="76" height="110"/></g><text x="250" y="310" fill="#0d2437" font-size="26">RAMS / FINAL WORK</text></g></g>
</svg>
