<svg width="36" height="45" viewBox="0 0 36 45" fill="none" xmlns="http://www.w3.org/2000/svg">
<g clip-path="url(#clip0_143_1990)">
<mask id="mask0_143_1990" style="mask-type:luminance" maskUnits="userSpaceOnUse" x="0" y="0" width="36" height="45">
<path d="M36 0H0V45H36V0Z" fill="white"/>
</mask>
<g mask="url(#mask0_143_1990)">
<path d="M14.4 2.2348e-05C14.0949 0.31599 13.7867 0.588624 13.4325 0.847523C12.1091 1.87366 11.1867 3.02403 10.32 4.44002C10.2746 4.51183 10.2291 4.58365 10.1823 4.65764C9.23351 6.16434 8.63489 7.80869 8.03999 9.48002C8.00331 9.57948 7.96663 9.67895 7.92884 9.78143C6.7892 12.9065 6.48675 16.4998 6.35999 19.8C6.35601 19.8947 6.35203 19.9895 6.34792 20.0871C6.32643 20.6725 6.33481 21.2548 6.35999 21.84C6.36429 21.949 6.36858 22.058 6.373 22.1702C6.6107 27.5246 7.69015 32.8238 10.9795 37.1742C11.16 37.44 11.16 37.44 11.16 37.68C11.2287 37.7083 11.2974 37.7366 11.3681 37.7658C11.6999 37.954 11.8956 38.1833 12.15 38.4675C13.6819 40.0196 15.8347 40.8435 18 40.875C20.1377 40.8439 22.2621 40.0434 23.7938 38.5303C23.9757 38.3421 24.1527 38.1504 24.3291 37.957C24.4185 37.8656 24.5079 37.7742 24.6 37.68C24.6792 37.68 24.7584 37.68 24.84 37.68C24.8681 37.6175 24.8963 37.555 24.9253 37.4906C25.0891 37.1829 25.2802 36.9017 25.479 36.6156C26.4262 35.246 27.1232 33.8048 27.75 32.265C27.7881 32.1721 27.8261 32.0792 27.8654 31.9834C28.4615 30.4764 28.7957 28.9305 29.055 27.3375C29.0705 27.244 29.0859 27.1504 29.1018 27.054C29.3862 25.3208 29.5708 23.5964 29.64 21.84C29.644 21.7474 29.648 21.6548 29.6521 21.5595C29.6741 20.971 29.6647 20.3879 29.64 19.8C29.6336 19.6324 29.6336 19.6324 29.627 19.4613C29.4836 16.1402 29.1148 12.6154 27.96 9.48002C27.9173 9.35956 27.8746 9.23909 27.8306 9.11498C27.2174 7.39145 26.5403 5.74849 25.56 4.20002C25.5124 4.12467 25.4648 4.04932 25.4158 3.97168C24.4689 2.50238 23.2842 1.20904 21.8076 0.260647C21.7391 0.214241 21.6706 0.167835 21.6 0.120022C21.6 0.0804224 21.6 0.0408224 21.6 2.2348e-05C22.9294 -0.20131 24.2648 0.469418 25.32 1.23752C26.2528 2.05279 26.9293 3.08294 27.5325 4.15502C27.5992 4.27338 27.6659 4.39175 27.7346 4.5137C28.4365 5.79751 28.9296 7.13813 29.4 8.52002C29.4695 8.71665 29.5392 8.91322 29.6091 9.10971C29.6721 9.29056 29.7349 9.47149 29.7975 9.65252C29.8237 9.72736 29.8499 9.8022 29.8769 9.87931C30.3963 11.4391 30.6771 13.0525 30.886 14.6786C30.9227 14.9638 30.961 15.2487 30.9996 15.5337C31.2399 17.334 31.3453 19.1171 31.3425 20.9325C31.3424 21.0274 31.3423 21.1223 31.3422 21.22C31.3329 24.8336 31.0146 28.6245 29.76 32.04C29.7145 32.1649 29.669 32.2899 29.6222 32.4186C28.9376 34.2669 28.1492 35.9555 27 37.56C26.9177 37.6759 26.8354 37.7917 26.7506 37.9111C26.5254 38.2077 26.2904 38.4843 26.04 38.76C25.9855 38.8202 25.931 38.8805 25.8748 38.9425C23.9142 41.0806 21.4064 42.4611 18.48 42.6333C15.641 42.7362 13.0576 41.6935 10.9547 39.8072C9.82004 38.748 8.96022 37.5642 8.15999 36.24C8.05897 36.078 8.05897 36.078 7.95591 35.9128C7.40921 35.0141 7.00859 34.0982 6.64499 33.1125C6.61661 33.036 6.58822 32.9595 6.55897 32.8806C5.16475 29.112 4.65366 25.1383 4.64999 21.1275C4.64987 21.0344 4.64975 20.9413 4.64963 20.8454C4.6513 18.92 4.79516 17.0309 5.03999 15.12C5.0567 14.9869 5.07341 14.8538 5.09062 14.7167C5.6464 10.4422 7.10662 4.30472 10.56 1.32002C11.7526 0.491832 12.9296 -0.112602 14.4 2.2348e-05Z" fill="#F1B32E"/>
<path d="M0.840007 16.5601C0.919207 16.5601 0.998407 16.5601 1.08001 16.5601C1.07169 16.6938 1.06338 16.8275 1.05481 16.9652C0.965314 18.478 0.93095 19.9873 0.930007 21.5026C0.929926 21.6212 0.929845 21.7397 0.929762 21.8619C0.931685 23.6409 1.00228 25.3662 1.32001 27.1201C1.36407 27.3845 1.40813 27.6488 1.45219 27.9132C1.71486 29.429 2.05451 30.8576 2.64001 32.2801C2.6809 32.3821 2.7218 32.484 2.76393 32.5891C3.26538 33.8344 3.77352 35.0246 4.56001 36.1201C4.64849 36.2511 4.73697 36.3821 4.82813 36.5171C6.59085 39.1021 8.81465 40.9151 11.64 42.2401C11.7619 42.2987 11.8838 42.3574 12.0094 42.4178C15.4116 43.896 20.3231 43.7817 23.7674 42.5118C25.4177 41.859 26.8647 41.018 28.2 39.8401C28.3024 39.7522 28.4048 39.6644 28.5103 39.5738C29.6848 38.5476 30.6074 37.4366 31.44 36.1201C31.5034 36.0261 31.5667 35.9321 31.632 35.8352C32.1802 35.0079 32.5869 34.1647 32.9625 33.2476C33.0177 33.1168 33.0728 32.986 33.1296 32.8513C33.7098 31.4584 34.1419 30.0952 34.4107 28.6095C34.4546 28.3676 34.5004 28.1261 34.5464 27.8846C34.9211 25.8855 35.0779 23.9293 35.0647 21.8953C35.0625 21.5483 35.0622 21.2015 35.0623 20.8546C35.0595 19.4197 35.0103 17.9921 34.92 16.5601C34.9992 16.5601 35.0784 16.5601 35.16 16.5601C35.2564 16.9998 35.3508 17.4399 35.445 17.8801C35.4716 18.0014 35.4982 18.1226 35.5256 18.2476C35.8862 19.9446 36.038 21.602 36.0361 23.3312C36.0366 23.514 36.0371 23.6968 36.0377 23.8796C36.0385 24.2597 36.0385 24.6398 36.0379 25.0198C36.0373 25.4044 36.0382 25.7889 36.0403 26.1734C36.0561 28.9791 36.0001 31.567 34.92 34.2001C34.8826 34.2916 34.8453 34.3831 34.8068 34.4774C34.338 35.6105 33.8312 36.6757 33.12 37.6801C33.042 37.7921 32.9641 37.9041 32.8838 38.0195C31.8749 39.4397 30.6849 40.9139 29.1844 41.8346C28.9168 41.9962 28.9168 41.9962 28.6706 42.1918C25.809 44.3881 21.9586 45.0886 18.4511 45.0693C18.0322 45.0676 17.6136 45.0717 17.1947 45.0763C14.4769 45.0857 12.0708 44.5628 9.60001 43.4401C9.46795 43.3809 9.46795 43.3809 9.33323 43.3204C8.1924 42.8021 7.2096 42.2006 6.24001 41.4001C6.1557 41.3313 6.0714 41.2624 5.98454 41.1915C5.74316 40.9872 5.51096 40.7761 5.28001 40.5601C5.17497 40.4628 5.06994 40.3655 4.96173 40.2653C4.17857 39.5143 3.57521 38.7214 3.00001 37.8001C2.87791 37.6248 2.75544 37.4498 2.63251 37.2751C0.780541 34.4846 -0.0368672 31.2698 -0.0403051 27.9545C-0.0410806 27.7738 -0.0418883 27.5931 -0.0427257 27.4124C-0.0441503 27.0357 -0.0446088 26.6589 -0.0444652 26.2821C-0.0444459 25.9033 -0.0460943 25.5246 -0.0493871 25.1458C-0.0745945 22.1989 0.149785 19.4394 0.840007 16.5601Z" fill="#F1B32E"/>
<path d="M14.76 1.08008C14.7204 1.27808 14.6808 1.47608 14.64 1.68008C14.5608 1.68008 14.4816 1.68008 14.4 1.68008C14.3705 1.76423 14.3409 1.84838 14.3105 1.93508C14.1387 2.32886 13.9177 2.64723 13.6725 3.00008C11.0544 6.9573 10.3923 12.058 9.96001 16.6801C9.95154 16.7647 9.94307 16.8493 9.93435 16.9365C9.5541 20.8396 9.88521 24.8332 10.56 28.6801C10.5821 28.8087 10.6043 28.9374 10.627 29.0699C10.9974 31.1883 11.5401 33.1968 12.4758 35.1404C12.5806 35.3596 12.6709 35.5856 12.7575 35.8126C13.2302 36.8106 13.9118 37.7001 14.61 38.551C14.76 38.7601 14.76 38.7601 14.76 39.0001C13.4734 38.8476 12.4181 37.4194 11.64 36.4801C11.027 35.6908 10.5265 34.853 10.08 33.9601C10.044 33.8898 10.008 33.8194 9.97085 33.7469C8.90357 31.6341 8.32746 29.2991 7.87501 26.9851C7.8578 26.8975 7.84059 26.8099 7.82286 26.7196C7.46366 24.7211 7.39523 22.7185 7.40251 20.6926C7.40273 20.566 7.40295 20.4394 7.40317 20.3089C7.40873 18.3977 7.4635 16.5262 7.80001 14.6401C7.8309 14.4635 7.8309 14.4635 7.86241 14.2833C8.34054 11.6312 8.9986 9.02014 10.2 6.60008C10.2444 6.50704 10.2887 6.41399 10.3344 6.31813C11.2324 4.43701 12.3778 2.73369 14.04 1.44008C14.124 1.37279 14.208 1.3055 14.2945 1.23617C14.52 1.08008 14.52 1.08008 14.76 1.08008Z" fill="#F1B22E"/>
<path d="M21.24 1.08008C22.2861 1.57891 23.0268 2.35765 23.76 3.24008C23.8363 3.33042 23.9125 3.42075 23.9911 3.51383C27.2481 7.66764 28.5595 13.8677 28.5844 19.0435C28.5856 19.2204 28.5856 19.2204 28.5869 19.4009C28.589 19.7789 28.5898 20.157 28.59 20.5351C28.5901 20.6643 28.5902 20.7934 28.5902 20.9265C28.5884 22.8147 28.5496 24.659 28.2 26.5201C28.1691 26.689 28.1691 26.689 28.1376 26.8613C27.6852 29.2677 27.1209 31.7102 25.9198 33.8602C25.7983 34.0832 25.6866 34.3092 25.5764 34.5381C24.7239 36.2802 23.3313 38.0665 21.6 39.0001C21.5208 39.0001 21.4416 39.0001 21.36 39.0001C21.4231 38.4897 21.5807 38.231 21.915 37.8451C22.8234 36.7449 23.4034 35.6608 23.88 34.3201C23.9484 34.1418 24.0174 33.9637 24.0867 33.7857C25.2452 30.7879 25.7667 27.5543 26.04 24.3601C26.0533 24.2207 26.0666 24.0814 26.0803 23.9378C26.3863 20.1211 26.1229 16.269 25.5023 12.4993C25.4434 12.1407 25.3874 11.7817 25.3317 11.4226C24.8197 8.25122 23.7463 4.88722 21.8475 2.26508C21.6 1.92008 21.6 1.92008 21.6 1.68008C21.4812 1.64048 21.3624 1.60088 21.24 1.56008C21.24 1.40168 21.24 1.24328 21.24 1.08008Z" fill="#F1B32E"/>
<path d="M28.8 4.19995C30.4743 4.90231 31.3177 7.3539 31.9506 8.89313C32.7969 11.0396 33.3332 13.3298 33.72 15.6C33.7395 15.7089 33.759 15.8178 33.779 15.9299C34.3837 19.44 34.369 23.3785 33.72 26.88C33.7001 26.9888 33.6801 27.0976 33.6595 27.2096C33.1996 29.6173 32.5249 32.0659 31.3252 34.2148C31.1924 34.4537 31.0649 34.695 30.9375 34.9369C30.3991 35.9442 29.7998 36.8211 29.04 37.68C28.91 37.8375 28.78 37.995 28.65 38.1525C28.3685 38.4778 28.075 38.7535 27.72 39C27.6408 39 27.5616 39 27.48 39C27.5441 38.5224 27.6683 38.2704 27.9816 37.9077C28.4744 37.2997 28.823 36.6515 29.175 35.955C29.2648 35.7814 29.2648 35.7814 29.3564 35.6044C29.9431 34.4617 30.4934 33.3345 30.8325 32.0924C30.862 31.9861 30.8915 31.8799 30.922 31.7704C31.1576 30.9066 31.3749 30.0383 31.5825 29.1674C31.611 29.0506 31.6396 28.9339 31.669 28.8136C32.2175 26.4424 32.3419 24.0902 32.3335 21.6642C32.3324 21.3326 32.3333 21.0012 32.336 20.6697C32.3637 17.2937 31.9338 14.0695 31.08 10.8C31.0454 10.6665 31.0107 10.533 30.9751 10.3954C30.5311 8.7166 29.9855 7.1425 29.2206 5.5813C29.166 5.46963 29.1113 5.35797 29.055 5.24292C29.0058 5.1454 28.9566 5.04788 28.9059 4.9474C28.8 4.67995 28.8 4.67995 28.8 4.19995Z" fill="#F1B22E"/>
<path d="M7.20001 4.19995C7.14977 4.82063 6.91633 5.30614 6.65494 5.86056C5.23848 8.87188 4.48743 12.088 3.96001 15.36C3.93669 15.4932 3.91337 15.6265 3.88935 15.7637C3.64852 17.3413 3.67507 18.936 3.67554 20.528C3.67556 20.8653 3.67391 21.2026 3.67062 21.5398C3.63879 24.8535 4.04537 27.9981 4.92001 31.2C4.95139 31.3149 4.98278 31.4299 5.01511 31.5483C5.4815 33.2139 6.13073 34.7239 6.96001 36.24C7.00093 36.3159 7.04184 36.3916 7.084 36.4698C7.41454 37.0788 7.74823 37.6438 8.21251 38.16C8.52001 38.52 8.52001 38.52 8.52001 39C7.84477 38.6999 7.37455 38.234 6.91501 37.665C6.82993 37.5607 6.74486 37.4564 6.6572 37.349C5.28297 35.5807 4.12716 33.5898 3.48001 31.44C3.41213 31.2309 3.34398 31.0218 3.27564 30.8128C2.91226 29.6838 2.58753 28.5551 2.36251 27.3899C2.34487 27.2996 2.32722 27.2092 2.30905 27.1161C1.96515 25.1997 1.87079 23.2734 1.87501 21.33C1.87508 21.2157 1.87514 21.1014 1.87521 20.9836C1.88334 17.8622 2.29627 14.896 3.12001 11.88C3.14948 11.7663 3.17895 11.6527 3.20931 11.5356C3.60846 10.0038 5.15261 4.19995 7.20001 4.19995Z" fill="#F1B22E"/>
</g>
</g>
<defs>
<clipPath id="clip0_143_1990">
<rect width="36" height="45" fill="white"/>
</clipPath>
</defs>
</svg>
